<svg width="160" height="160" viewBox="0 0 160 160" fill="none" xmlns="http://www.w3.org/2000/svg">
<g clip-path="url(#clip0_28_6)">
<path d="M160 67.0577C150.021 70.5883 141.121 77.3972 134.844 86.7969C126.532 98.999 111.996 104.544 98.2442 100.763C93.5166 99.4629 89.942 98.4799 89.942 98.4799L120.858 107.731L85.9815 160.002L14.7978 146.798L35.9073 115.184L71.0657 121.694L113.305 58.4174L160.005 67.0601L160 67.0577Z" fill="#00396E"/>
<path d="M151.641 23.4765C135.609 27.5479 121.015 37.2673 110.661 51.4066C109.992 52.3103 109.352 53.2284 108.723 54.1681L108.639 54.2883L68.3331 114.657L36.4884 108.754L33.1838 108.144L13.0956 104.423C23.4314 100.84 32.6845 93.8292 39.1642 84.1146L80.1305 22.7507L37.4007 44.3382L0 37.4019L24.9701 0L151.641 23.4765Z" fill="#009DD1"/>
</g>
<defs>
<clipPath id="clip0_28_6">
<rect width="160" height="160" fill="white"/>
</clipPath>
</defs>
</svg>
