<svg width="175" height="37" viewBox="0 0 175 37" fill="none" xmlns="http://www.w3.org/2000/svg">
<g clip-path="url(#clip0_171_1380)">
<path d="M28.4354 16.3282C26.6621 16.9207 25.0807 18.0632 23.9651 19.6406C22.4882 21.6882 19.905 22.6186 17.4613 21.9842C16.6212 21.766 15.986 21.6011 15.986 21.6011L21.4799 23.1534L15.2823 31.925L2.63281 29.7092L6.38401 24.4041L12.6317 25.4967L20.1377 14.8783L28.4362 16.3286L28.4354 16.3282Z" fill="#E4F0F4"/>
<path d="M26.9468 9.01498C24.0978 9.69819 21.5045 11.3292 19.6646 13.7019C19.5456 13.8535 19.4319 14.0076 19.3202 14.1653L19.3053 14.1854L12.1429 24.3158L6.48403 23.3253L5.89681 23.2228L2.3271 22.5985C4.16378 21.9971 5.80808 20.8207 6.95953 19.1905L14.2393 8.89318L6.64616 12.5157L0 11.3518L4.43722 5.07544L26.9468 9.01498Z" fill="#009DD1"/>
</g>
<path d="M43.8698 27.3142C44.2323 27.3142 44.6039 27.287 44.9846 27.2326C45.3652 27.1601 45.6734 27.0876 45.9091 27.0151V28.8369C45.6553 28.9637 45.2927 29.0634 44.8214 29.136C44.3501 29.2266 43.8969 29.2719 43.4619 29.2719C42.7006 29.2719 41.9936 29.145 41.341 28.8912C40.7066 28.6193 40.1899 28.1571 39.7911 27.5045C39.3923 26.8519 39.193 25.9365 39.193 24.7583V16.2748H37.1265V15.1327L39.2201 14.1811L40.1718 11.0813H41.5857V14.4258H45.8003V16.2748H41.5857V24.7039C41.5857 25.5921 41.7942 26.2537 42.2111 26.6888C42.6462 27.1057 43.199 27.3142 43.8698 27.3142ZM54.4559 14.1539C55.7066 14.1539 56.7761 14.4258 57.6644 14.9696C58.5707 15.5134 59.2595 16.2838 59.7308 17.2808C60.2203 18.2597 60.465 19.4107 60.465 20.734V22.1751H50.486C50.5223 23.8247 50.9392 25.0845 51.7368 25.9546C52.5525 26.8066 53.6855 27.2326 55.1356 27.2326C56.0601 27.2326 56.8758 27.151 57.5828 26.9879C58.3079 26.8066 59.0511 26.5528 59.8124 26.2265V28.3202C59.0692 28.6465 58.3351 28.8822 57.61 29.0272C56.8849 29.1903 56.0239 29.2719 55.0269 29.2719C53.6492 29.2719 52.4256 28.9909 51.3561 28.429C50.3047 27.8671 49.48 27.0332 48.8818 25.9275C48.3017 24.8036 48.0117 23.435 48.0117 21.8217C48.0117 20.2265 48.2745 18.8579 48.8002 17.7159C49.344 16.5739 50.0963 15.6947 51.057 15.0784C52.0359 14.462 53.1688 14.1539 54.4559 14.1539ZM54.4287 16.1116C53.2867 16.1116 52.3803 16.4832 51.7096 17.2264C51.057 17.9515 50.6673 18.9666 50.5404 20.2718H57.9635C57.9635 19.4379 57.8366 18.7129 57.5828 18.0965C57.329 17.4802 56.9393 16.9998 56.4136 16.6554C55.906 16.2929 55.2444 16.1116 54.4287 16.1116ZM70.9729 14.1539C71.2448 14.1539 71.5349 14.172 71.843 14.2083C72.1693 14.2264 72.4503 14.2626 72.6859 14.317L72.3868 16.5195C72.1512 16.4651 71.8883 16.4198 71.5983 16.3835C71.3264 16.3473 71.0636 16.3291 70.8098 16.3291C70.2478 16.3291 69.7131 16.447 69.2055 16.6826C68.698 16.9183 68.2448 17.2536 67.846 17.6887C67.4472 18.1056 67.13 18.6132 66.8943 19.2113C66.6768 19.8095 66.568 20.4802 66.568 21.2235V29H64.1753V14.4258H66.133L66.4049 17.0905H66.5137C66.8218 16.5467 67.1934 16.0572 67.6285 15.6222C68.0635 15.169 68.562 14.8155 69.124 14.5617C69.6859 14.2898 70.3022 14.1539 70.9729 14.1539ZM82.205 14.1539C82.4769 14.1539 82.767 14.172 83.0751 14.2083C83.4014 14.2264 83.6824 14.2626 83.918 14.317L83.6189 16.5195C83.3833 16.4651 83.1204 16.4198 82.8304 16.3835C82.5585 16.3473 82.2957 16.3291 82.0419 16.3291C81.4799 16.3291 80.9452 16.447 80.4376 16.6826C79.9301 16.9183 79.4769 17.2536 79.0781 17.6887C78.6793 18.1056 78.3621 18.6132 78.1264 19.2113C77.9089 19.8095 77.8001 20.4802 77.8001 21.2235V29H75.4073V14.4258H77.3651L77.637 17.0905H77.7457C78.0539 16.5467 78.4255 16.0572 78.8606 15.6222C79.2956 15.169 79.7941 14.8155 80.3561 14.5617C80.918 14.2898 81.5343 14.1539 82.205 14.1539ZM91.6281 14.1811C93.4045 14.1811 94.7188 14.5708 95.5707 15.3503C96.4227 16.1297 96.8487 17.3714 96.8487 19.0754V29H95.1085L94.6463 26.9335H94.5375C94.1206 27.4592 93.6855 27.9033 93.2323 28.2659C92.7973 28.6103 92.2897 28.864 91.7097 29.0272C91.1477 29.1903 90.4589 29.2719 89.6432 29.2719C88.7731 29.2719 87.9845 29.1178 87.2776 28.8097C86.5887 28.5015 86.0449 28.0302 85.6461 27.3957C85.2473 26.7432 85.0479 25.9275 85.0479 24.9486C85.0479 23.4984 85.6189 22.3836 86.761 21.6041C87.903 20.8065 89.6613 20.3715 92.0359 20.299L94.5103 20.2174V19.3473C94.5103 18.1328 94.2475 17.2899 93.7218 16.8186C93.1961 16.3473 92.4529 16.1116 91.4921 16.1116C90.7308 16.1116 90.0057 16.2294 89.3169 16.4651C88.628 16.6826 87.9845 16.9364 87.3863 17.2264L86.6522 15.4318C87.2866 15.0874 88.0389 14.7974 88.909 14.5617C89.7791 14.308 90.6855 14.1811 91.6281 14.1811ZM92.335 21.9576C90.5223 22.0301 89.2625 22.3202 88.5555 22.8277C87.8667 23.3353 87.5223 24.0513 87.5223 24.9758C87.5223 25.7915 87.767 26.3897 88.2564 26.7704C88.764 27.151 89.4075 27.3414 90.187 27.3414C91.4196 27.3414 92.4438 27.006 93.2595 26.3353C94.0752 25.6465 94.4831 24.5951 94.4831 23.1812V21.876L92.335 21.9576ZM108.066 16.2748H104.395V29H102.003V16.2748H99.4467V15.1599L102.003 14.3442V13.5013C102.003 12.2505 102.184 11.2354 102.546 10.4559C102.927 9.67648 103.471 9.10547 104.178 8.74293C104.885 8.38039 105.737 8.19912 106.734 8.19912C107.314 8.19912 107.84 8.2535 108.311 8.36226C108.8 8.4529 109.217 8.56166 109.562 8.68855L108.936 10.5647C108.646 10.4741 108.311 10.3834 107.93 10.2928C107.55 10.2022 107.16 10.1568 106.761 10.1568C105.963 10.1568 105.365 10.4288 104.966 10.9726C104.586 11.4983 104.395 12.3321 104.395 13.4741V14.4258H108.066V16.2748ZM113.096 29H110.704V8.33507H113.096V29ZM130.378 21.6857C130.378 22.9002 130.215 23.9788 129.888 24.9214C129.58 25.8459 129.127 26.6344 128.529 27.287C127.949 27.9396 127.233 28.4381 126.381 28.7825C125.547 29.1088 124.613 29.2719 123.58 29.2719C122.619 29.2719 121.731 29.1088 120.915 28.7825C120.1 28.4381 119.393 27.9396 118.795 27.287C118.196 26.6344 117.725 25.8459 117.381 24.9214C117.054 23.9788 116.891 22.9002 116.891 21.6857C116.891 20.0724 117.163 18.7129 117.707 17.6071C118.251 16.4832 119.03 15.6312 120.045 15.0512C121.06 14.453 122.266 14.1539 123.662 14.1539C124.985 14.1539 126.145 14.453 127.142 15.0512C128.157 15.6312 128.946 16.4832 129.508 17.6071C130.088 18.7129 130.378 20.0724 130.378 21.6857ZM119.366 21.6857C119.366 22.8277 119.511 23.8247 119.801 24.6767C120.109 25.5105 120.58 26.154 121.215 26.6072C121.849 27.0604 122.656 27.287 123.635 27.287C124.613 27.287 125.42 27.0604 126.054 26.6072C126.689 26.154 127.151 25.5105 127.441 24.6767C127.749 23.8247 127.903 22.8277 127.903 21.6857C127.903 20.5256 127.749 19.5376 127.441 18.7219C127.133 17.9062 126.662 17.2808 126.027 16.8458C125.411 16.3926 124.604 16.166 123.607 16.166C122.121 16.166 121.042 16.6554 120.372 17.6343C119.701 18.6132 119.366 19.9636 119.366 21.6857ZM143.047 20.7612C142.938 20.3805 142.829 20.0089 142.721 19.6464C142.612 19.2657 142.512 18.9123 142.422 18.586C142.349 18.2415 142.277 17.9243 142.204 17.6343C142.132 17.3443 142.077 17.0995 142.041 16.9001H141.932C141.896 17.0995 141.842 17.3443 141.769 17.6343C141.715 17.9243 141.642 18.2415 141.551 18.586C141.479 18.9304 141.388 19.2929 141.28 19.6736C141.189 20.0361 141.08 20.4077 140.953 20.7884L138.343 28.9728H135.624L131.627 14.3986H134.101L136.113 22.1751C136.258 22.7008 136.394 23.2356 136.521 23.7794C136.648 24.3051 136.757 24.8126 136.847 25.3021C136.956 25.7734 137.029 26.1812 137.065 26.5256H137.174C137.228 26.3081 137.292 26.0362 137.364 25.7099C137.437 25.3836 137.509 25.0392 137.582 24.6767C137.672 24.3141 137.763 23.9516 137.854 23.5891C137.962 23.2265 138.062 22.9002 138.153 22.6102L140.736 14.3986H143.346L145.848 22.6102C145.974 23.0271 146.101 23.4712 146.228 23.9425C146.373 24.4138 146.5 24.8761 146.609 25.3293C146.718 25.7643 146.79 26.154 146.826 26.4985H146.935C146.971 26.1903 147.035 25.8096 147.126 25.3564C147.234 24.8851 147.352 24.3776 147.479 23.8338C147.624 23.2718 147.769 22.7189 147.914 22.1751L149.953 14.3986H152.401L148.349 28.9728H145.549L143.047 20.7612ZM164.422 20.7612C164.314 20.3805 164.205 20.0089 164.096 19.6464C163.987 19.2657 163.888 18.9123 163.797 18.586C163.725 18.2415 163.652 17.9243 163.58 17.6343C163.507 17.3443 163.453 17.0995 163.416 16.9001H163.308C163.271 17.0995 163.217 17.3443 163.145 17.6343C163.09 17.9243 163.018 18.2415 162.927 18.586C162.854 18.9304 162.764 19.2929 162.655 19.6736C162.564 20.0361 162.456 20.4077 162.329 20.7884L159.718 28.9728H156.999L153.002 14.3986H155.477L157.489 22.1751C157.634 22.7008 157.77 23.2356 157.897 23.7794C158.024 24.3051 158.132 24.8126 158.223 25.3021C158.332 25.7734 158.404 26.1812 158.441 26.5256H158.549C158.604 26.3081 158.667 26.0362 158.74 25.7099C158.812 25.3836 158.885 25.0392 158.957 24.6767C159.048 24.3141 159.138 23.9516 159.229 23.5891C159.338 23.2265 159.438 22.9002 159.528 22.6102L162.111 14.3986H164.722L167.223 22.6102C167.35 23.0271 167.477 23.4712 167.604 23.9425C167.749 24.4138 167.876 24.8761 167.984 25.3293C168.093 25.7643 168.166 26.154 168.202 26.4985H168.311C168.347 26.1903 168.41 25.8096 168.501 25.3564C168.61 24.8851 168.728 24.3776 168.855 23.8338C169 23.2718 169.145 22.7189 169.29 22.1751L171.329 14.3986H173.776L169.725 28.9728H166.924L164.422 20.7612Z" fill="#E4F0F4"/>
<defs>
<clipPath id="clip0_171_1380">
<rect width="28.4322" height="26.8492" fill="white" transform="translate(0 5.07544)"/>
</clipPath>
</defs>
</svg>
