<svg width="1012" height="215" viewBox="0 0 1012 215" fill="none" xmlns="http://www.w3.org/2000/svg">
<g clip-path="url(#clip0_286_3)">
<path d="M165.214 95.3878C154.909 98.8305 145.72 105.47 139.238 114.635C130.656 126.534 115.645 131.94 101.446 128.254C96.5639 126.986 92.8728 126.028 92.8728 126.028L124.797 135.048L88.7833 186.018L15.2798 173.143L37.0773 142.315L73.3814 148.664L116.997 86.9627L165.219 95.3902L165.214 95.3878Z" fill="#1B1825"/>
<path d="M156.583 52.8919C140.028 56.8619 124.959 66.3393 114.267 80.1265C113.576 81.0076 112.915 81.9029 112.266 82.8192L112.179 82.9364L70.56 141.802L37.6775 136.046L34.2652 135.451L13.5224 131.823C24.1949 128.329 33.7496 121.493 40.4405 112.02L82.7418 52.1842L38.6196 73.234L0 66.4705L25.7839 30L156.583 52.8919Z" fill="#009DD1"/>
</g>
<path d="M254.712 159.204C256.819 159.204 258.978 159.046 261.19 158.73C263.402 158.309 265.193 157.887 266.562 157.466V168.052C265.087 168.789 262.981 169.369 260.242 169.79C257.503 170.317 254.87 170.58 252.342 170.58C247.918 170.58 243.81 169.843 240.018 168.368C236.331 166.788 233.329 164.102 231.012 160.31C228.695 156.518 227.536 151.199 227.536 144.352V95.056H215.528V88.42L227.694 82.89L233.224 64.878H241.44V84.312H265.93V95.056H241.44V144.036C241.44 149.197 242.651 153.042 245.074 155.57C247.602 157.993 250.815 159.204 254.712 159.204ZM316.226 82.732C323.494 82.732 329.709 84.312 334.87 87.472C340.137 90.632 344.139 95.1087 346.878 100.902C349.722 106.59 351.144 113.279 351.144 120.968V129.342H293.158C293.369 138.927 295.791 146.248 300.426 151.304C305.166 156.255 311.749 158.73 320.176 158.73C325.548 158.73 330.288 158.256 334.396 157.308C338.609 156.255 342.928 154.78 347.352 152.884V165.05C343.033 166.946 338.767 168.315 334.554 169.158C330.341 170.106 325.337 170.58 319.544 170.58C311.539 170.58 304.429 168.947 298.214 165.682C292.105 162.417 287.312 157.571 283.836 151.146C280.465 144.615 278.78 136.663 278.78 127.288C278.78 118.019 280.307 110.066 283.362 103.43C286.522 96.794 290.893 91.6853 296.476 88.104C302.164 84.5227 308.747 82.732 316.226 82.732ZM316.068 94.108C309.432 94.108 304.165 96.2673 300.268 100.586C296.476 104.799 294.211 110.698 293.474 118.282H336.608C336.608 113.437 335.871 109.223 334.396 105.642C332.921 102.061 330.657 99.2693 327.602 97.268C324.653 95.1613 320.808 94.108 316.068 94.108ZM412.203 82.732C413.783 82.732 415.469 82.8373 417.259 83.048C419.155 83.1533 420.788 83.364 422.157 83.68L420.419 96.478C419.05 96.162 417.523 95.8987 415.837 95.688C414.257 95.4773 412.73 95.372 411.255 95.372C407.99 95.372 404.883 96.0567 401.933 97.426C398.984 98.7953 396.351 100.744 394.033 103.272C391.716 105.695 389.873 108.644 388.503 112.12C387.239 115.596 386.607 119.493 386.607 123.812V169H372.703V84.312H384.079L385.659 99.796H386.291C388.082 96.636 390.241 93.792 392.769 91.264C395.297 88.6307 398.194 86.5767 401.459 85.102C404.725 83.522 408.306 82.732 412.203 82.732ZM477.471 82.732C479.051 82.732 480.736 82.8373 482.527 83.048C484.423 83.1533 486.056 83.364 487.425 83.68L485.687 96.478C484.318 96.162 482.79 95.8987 481.105 95.688C479.525 95.4773 477.998 95.372 476.523 95.372C473.258 95.372 470.15 96.0567 467.201 97.426C464.252 98.7953 461.618 100.744 459.301 103.272C456.984 105.695 455.14 108.644 453.771 112.12C452.507 115.596 451.875 119.493 451.875 123.812V169H437.971V84.312H449.347L450.927 99.796H451.559C453.35 96.636 455.509 93.792 458.037 91.264C460.565 88.6307 463.462 86.5767 466.727 85.102C469.992 83.522 473.574 82.732 477.471 82.732ZM532.227 82.89C542.549 82.89 550.186 85.1547 555.137 89.684C560.087 94.2133 562.563 101.429 562.563 111.33V169H552.451L549.765 156.992H549.133C546.71 160.047 544.182 162.627 541.549 164.734C539.021 166.735 536.071 168.21 532.701 169.158C529.435 170.106 525.433 170.58 520.693 170.58C515.637 170.58 511.055 169.685 506.947 167.894C502.944 166.103 499.784 163.365 497.467 159.678C495.149 155.886 493.991 151.146 493.991 145.458C493.991 137.031 497.309 130.553 503.945 126.024C510.581 121.389 520.798 118.861 534.597 118.44L548.975 117.966V112.91C548.975 105.853 547.447 100.955 544.393 98.216C541.338 95.4773 537.019 94.108 531.437 94.108C527.013 94.108 522.799 94.7927 518.797 96.162C514.794 97.426 511.055 98.9007 507.579 100.586L503.313 90.158C506.999 88.1567 511.371 86.4713 516.427 85.102C521.483 83.6273 526.749 82.89 532.227 82.89ZM536.335 128.078C525.801 128.499 518.481 130.185 514.373 133.134C510.37 136.083 508.369 140.244 508.369 145.616C508.369 150.356 509.791 153.832 512.635 156.044C515.584 158.256 519.323 159.362 523.853 159.362C531.015 159.362 536.967 157.413 541.707 153.516C546.447 149.513 548.817 143.404 548.817 135.188V127.604L536.335 128.078ZM627.745 95.056H606.415V169H592.511V95.056H577.659V88.578L592.511 83.838V78.94C592.511 71.672 593.564 65.7733 595.671 61.244C597.883 56.7147 601.043 53.3967 605.151 51.29C609.259 49.1833 614.21 48.13 620.003 48.13C623.374 48.13 626.428 48.446 629.167 49.078C632.011 49.6047 634.434 50.2367 636.435 50.974L632.801 61.876C631.116 61.3493 629.167 60.8227 626.955 60.296C624.743 59.7693 622.478 59.506 620.161 59.506C615.526 59.506 612.05 61.086 609.733 64.246C607.521 67.3007 606.415 72.146 606.415 78.782V84.312H627.745V95.056ZM656.975 169H643.071V48.92H656.975V169ZM757.394 126.498C757.394 133.555 756.446 139.823 754.55 145.3C752.759 150.672 750.126 155.254 746.65 159.046C743.279 162.838 739.119 165.735 734.168 167.736C729.323 169.632 723.898 170.58 717.894 170.58C712.311 170.58 707.15 169.632 702.41 167.736C697.67 165.735 693.562 162.838 690.086 159.046C686.61 155.254 683.871 150.672 681.87 145.3C679.974 139.823 679.026 133.555 679.026 126.498C679.026 117.123 680.606 109.223 683.766 102.798C686.926 96.2673 691.455 91.3167 697.354 87.946C703.253 84.47 710.257 82.732 718.368 82.732C726.057 82.732 732.799 84.47 738.592 87.946C744.491 91.3167 749.073 96.2673 752.338 102.798C755.709 109.223 757.394 117.123 757.394 126.498ZM693.404 126.498C693.404 133.134 694.247 138.927 695.932 143.878C697.723 148.723 700.461 152.463 704.148 155.096C707.835 157.729 712.522 159.046 718.21 159.046C723.898 159.046 728.585 157.729 732.272 155.096C735.959 152.463 738.645 148.723 740.33 143.878C742.121 138.927 743.016 133.134 743.016 126.498C743.016 119.757 742.121 114.016 740.33 109.276C738.539 104.536 735.801 100.902 732.114 98.374C728.533 95.7407 723.845 94.424 718.052 94.424C709.415 94.424 703.147 97.268 699.25 102.956C695.353 108.644 693.404 116.491 693.404 126.498ZM831.012 121.126C830.38 118.914 829.748 116.755 829.116 114.648C828.484 112.436 827.905 110.382 827.378 108.486C826.957 106.485 826.535 104.641 826.114 102.956C825.693 101.271 825.377 99.8487 825.166 98.69H824.534C824.323 99.8487 824.007 101.271 823.586 102.956C823.27 104.641 822.849 106.485 822.322 108.486C821.901 110.487 821.374 112.594 820.742 114.806C820.215 116.913 819.583 119.072 818.846 121.284L803.678 168.842H787.878L764.652 84.154H779.03L790.722 129.342C791.565 132.397 792.355 135.504 793.092 138.664C793.829 141.719 794.461 144.668 794.988 147.512C795.62 150.251 796.041 152.621 796.252 154.622H796.884C797.2 153.358 797.569 151.778 797.99 149.882C798.411 147.986 798.833 145.985 799.254 143.878C799.781 141.771 800.307 139.665 800.834 137.558C801.466 135.451 802.045 133.555 802.572 131.87L817.582 84.154H832.75L847.286 131.87C848.023 134.293 848.761 136.873 849.498 139.612C850.341 142.351 851.078 145.037 851.71 147.67C852.342 150.198 852.763 152.463 852.974 154.464H853.606C853.817 152.673 854.185 150.461 854.712 147.828C855.344 145.089 856.029 142.14 856.766 138.98C857.609 135.715 858.451 132.502 859.294 129.342L871.144 84.154H885.364L861.822 168.842H845.548L831.012 121.126ZM955.221 121.126C954.589 118.914 953.957 116.755 953.325 114.648C952.693 112.436 952.114 110.382 951.587 108.486C951.166 106.485 950.744 104.641 950.323 102.956C949.902 101.271 949.586 99.8487 949.375 98.69H948.743C948.532 99.8487 948.216 101.271 947.795 102.956C947.479 104.641 947.058 106.485 946.531 108.486C946.11 110.487 945.583 112.594 944.951 114.806C944.424 116.913 943.792 119.072 943.055 121.284L927.887 168.842H912.087L888.861 84.154H903.239L914.931 129.342C915.774 132.397 916.564 135.504 917.301 138.664C918.038 141.719 918.67 144.668 919.197 147.512C919.829 150.251 920.25 152.621 920.461 154.622H921.093C921.409 153.358 921.778 151.778 922.199 149.882C922.62 147.986 923.042 145.985 923.463 143.878C923.99 141.771 924.516 139.665 925.043 137.558C925.675 135.451 926.254 133.555 926.781 131.87L941.791 84.154H956.959L971.495 131.87C972.232 134.293 972.97 136.873 973.707 139.612C974.55 142.351 975.287 145.037 975.919 147.67C976.551 150.198 976.972 152.463 977.183 154.464H977.815C978.026 152.673 978.394 150.461 978.921 147.828C979.553 145.089 980.238 142.14 980.975 138.98C981.818 135.715 982.66 132.502 983.503 129.342L995.353 84.154H1009.57L986.031 168.842H969.757L955.221 121.126Z" fill="#1B1825"/>
<defs>
<clipPath id="clip0_286_3">
<rect width="165.214" height="156.016" fill="white" transform="translate(0 30)"/>
</clipPath>
</defs>
</svg>
